<mxfile host="app.diagrams.net" agent="Mozilla/5.0 (Windows NT 10.0; Win64; x64) AppleWebKit/537.36 (KHTML, like Gecko) Chrome/130.0.0.0 Safari/537.36" version="24.8.4">
  <diagram name="Manufacturing Order Process" id="iPiZ8MPK2cHm-Gh4ZoQC">
    <mxGraphModel dx="1221" dy="725" grid="1" gridSize="10" guides="1" tooltips="1" connect="1" arrows="1" fold="1" page="1" pageScale="1" pageWidth="827" pageHeight="1169" math="0" shadow="0">
      <root>
        <mxCell id="0" />
        <mxCell id="1" parent="0" />
        <mxCell id="wDngvXoaTJXHuX1bekDi-1" value="" style="ellipse;whiteSpace=wrap;html=1;strokeColor=#000000;strokeWidth=2;aspect=fixed;" vertex="1" parent="1">
          <mxGeometry x="50" y="50" width="30" height="30" as="geometry" />
        </mxCell>
        <mxCell id="wDngvXoaTJXHuX1bekDi-2" value="Check Stock" style="rounded=1;whiteSpace=wrap;html=1;strokeColor=#000000;strokeWidth=1;" vertex="1" parent="1">
          <mxGeometry x="150" y="30" width="140" height="60" as="geometry" />
        </mxCell>
        <mxCell id="wDngvXoaTJXHuX1bekDi-3" value="Goods in Stock?" style="shape=rhombus;whiteSpace=wrap;html=1;strokeColor=#000000;strokeWidth=1;" vertex="1" parent="1">
          <mxGeometry x="350" y="30" width="60" height="60" as="geometry" />
        </mxCell>
        <mxCell id="wDngvXoaTJXHuX1bekDi-4" value="Retrieve Goods" style="rounded=1;whiteSpace=wrap;html=1;strokeColor=#000000;strokeWidth=1;" vertex="1" parent="1">
          <mxGeometry x="500" y="30" width="140" height="60" as="geometry" />
        </mxCell>
        <mxCell id="wDngvXoaTJXHuX1bekDi-5" value="Raw Material Available?" style="shape=rhombus;whiteSpace=wrap;html=1;strokeColor=#000000;strokeWidth=1;" vertex="1" parent="1">
          <mxGeometry x="350" y="130" width="60" height="60" as="geometry" />
        </mxCell>
        <mxCell id="wDngvXoaTJXHuX1bekDi-6" value="Order Raw Material" style="rounded=1;whiteSpace=wrap;html=1;strokeColor=#000000;strokeWidth=1;" vertex="1" parent="1">
          <mxGeometry x="500" y="130" width="160" height="60" as="geometry" />
        </mxCell>
        <mxCell id="wDngvXoaTJXHuX1bekDi-7" value="Assemble Product" style="rounded=1;whiteSpace=wrap;html=1;strokeColor=#000000;strokeWidth=1;" vertex="1" parent="1">
          <mxGeometry x="700" y="30" width="160" height="60" as="geometry" />
        </mxCell>
        <mxCell id="wDngvXoaTJXHuX1bekDi-8" value="Confirm Order" style="rounded=1;whiteSpace=wrap;html=1;strokeColor=#000000;strokeWidth=1;" vertex="1" parent="1">
          <mxGeometry x="900" y="30" width="140" height="60" as="geometry" />
        </mxCell>
        <mxCell id="wDngvXoaTJXHuX1bekDi-9" value="Ship Goods" style="rounded=1;whiteSpace=wrap;html=1;strokeColor=#000000;strokeWidth=1;" vertex="1" parent="1">
          <mxGeometry x="1100" y="30" width="120" height="60" as="geometry" />
        </mxCell>
        <mxCell id="wDngvXoaTJXHuX1bekDi-10" value="Issue Invoice" style="rounded=1;whiteSpace=wrap;html=1;strokeColor=#000000;strokeWidth=1;" vertex="1" parent="1">
          <mxGeometry x="1300" y="30" width="120" height="60" as="geometry" />
        </mxCell>
        <mxCell id="wDngvXoaTJXHuX1bekDi-11" value="Receive Payment" style="rounded=1;whiteSpace=wrap;html=1;strokeColor=#000000;strokeWidth=1;" vertex="1" parent="1">
          <mxGeometry x="1500" y="30" width="140" height="60" as="geometry" />
        </mxCell>
        <mxCell id="wDngvXoaTJXHuX1bekDi-12" value="" style="ellipse;whiteSpace=wrap;html=1;strokeColor=#000000;strokeWidth=4;aspect=fixed;" vertex="1" parent="1">
          <mxGeometry x="1700" y="50" width="30" height="30" as="geometry" />
        </mxCell>
        <mxCell id="wDngvXoaTJXHuX1bekDi-13" value="" style="edgeStyle=orthogonalEdgeStyle;html=1;strokeColor=#000000;strokeWidth=1;rounded=0;" edge="1" parent="1" source="wDngvXoaTJXHuX1bekDi-1" target="wDngvXoaTJXHuX1bekDi-2">
          <mxGeometry relative="1" as="geometry" />
        </mxCell>
        <mxCell id="wDngvXoaTJXHuX1bekDi-14" value="" style="edgeStyle=orthogonalEdgeStyle;html=1;strokeColor=#000000;strokeWidth=1;rounded=0;" edge="1" parent="1" source="wDngvXoaTJXHuX1bekDi-2" target="wDngvXoaTJXHuX1bekDi-3">
          <mxGeometry relative="1" as="geometry" />
        </mxCell>
        <mxCell id="wDngvXoaTJXHuX1bekDi-15" value="Yes" style="edgeStyle=orthogonalEdgeStyle;html=1;strokeColor=#000000;strokeWidth=1;rounded=0;" edge="1" parent="1" source="wDngvXoaTJXHuX1bekDi-3" target="wDngvXoaTJXHuX1bekDi-4">
          <mxGeometry relative="1" as="geometry" />
        </mxCell>
        <mxCell id="wDngvXoaTJXHuX1bekDi-16" value="No" style="edgeStyle=orthogonalEdgeStyle;html=1;strokeColor=#000000;strokeWidth=1;rounded=0;" edge="1" parent="1" source="wDngvXoaTJXHuX1bekDi-3" target="wDngvXoaTJXHuX1bekDi-5">
          <mxGeometry relative="1" as="geometry" />
        </mxCell>
        <mxCell id="wDngvXoaTJXHuX1bekDi-17" value="Yes" style="edgeStyle=orthogonalEdgeStyle;html=1;strokeColor=#000000;strokeWidth=1;rounded=0;" edge="1" parent="1" source="wDngvXoaTJXHuX1bekDi-5" target="wDngvXoaTJXHuX1bekDi-7">
          <mxGeometry relative="1" as="geometry" />
        </mxCell>
        <mxCell id="wDngvXoaTJXHuX1bekDi-18" value="No" style="edgeStyle=orthogonalEdgeStyle;html=1;strokeColor=#000000;strokeWidth=1;rounded=0;" edge="1" parent="1" source="wDngvXoaTJXHuX1bekDi-5" target="wDngvXoaTJXHuX1bekDi-6">
          <mxGeometry relative="1" as="geometry" />
        </mxCell>
        <mxCell id="wDngvXoaTJXHuX1bekDi-19" value="" style="edgeStyle=orthogonalEdgeStyle;html=1;strokeColor=#000000;strokeWidth=1;rounded=0;" edge="1" parent="1" source="wDngvXoaTJXHuX1bekDi-6" target="wDngvXoaTJXHuX1bekDi-7">
          <mxGeometry relative="1" as="geometry" />
        </mxCell>
        <mxCell id="wDngvXoaTJXHuX1bekDi-20" value="" style="edgeStyle=orthogonalEdgeStyle;html=1;strokeColor=#000000;strokeWidth=1;rounded=0;" edge="1" parent="1" source="wDngvXoaTJXHuX1bekDi-4" target="wDngvXoaTJXHuX1bekDi-7">
          <mxGeometry relative="1" as="geometry" />
        </mxCell>
        <mxCell id="wDngvXoaTJXHuX1bekDi-21" value="" style="edgeStyle=orthogonalEdgeStyle;html=1;strokeColor=#000000;strokeWidth=1;rounded=0;" edge="1" parent="1" source="wDngvXoaTJXHuX1bekDi-7" target="wDngvXoaTJXHuX1bekDi-8">
          <mxGeometry relative="1" as="geometry" />
        </mxCell>
        <mxCell id="wDngvXoaTJXHuX1bekDi-22" value="" style="edgeStyle=orthogonalEdgeStyle;html=1;strokeColor=#000000;strokeWidth=1;rounded=0;" edge="1" parent="1" source="wDngvXoaTJXHuX1bekDi-8" target="wDngvXoaTJXHuX1bekDi-9">
          <mxGeometry relative="1" as="geometry" />
        </mxCell>
        <mxCell id="wDngvXoaTJXHuX1bekDi-23" value="" style="edgeStyle=orthogonalEdgeStyle;html=1;strokeColor=#000000;strokeWidth=1;rounded=0;" edge="1" parent="1" source="wDngvXoaTJXHuX1bekDi-9" target="wDngvXoaTJXHuX1bekDi-10">
          <mxGeometry relative="1" as="geometry" />
        </mxCell>
        <mxCell id="wDngvXoaTJXHuX1bekDi-24" value="" style="edgeStyle=orthogonalEdgeStyle;html=1;strokeColor=#000000;strokeWidth=1;rounded=0;" edge="1" parent="1" source="wDngvXoaTJXHuX1bekDi-10" target="wDngvXoaTJXHuX1bekDi-11">
          <mxGeometry relative="1" as="geometry" />
        </mxCell>
        <mxCell id="wDngvXoaTJXHuX1bekDi-25" value="" style="edgeStyle=orthogonalEdgeStyle;html=1;strokeColor=#000000;strokeWidth=1;rounded=0;" edge="1" parent="1" source="wDngvXoaTJXHuX1bekDi-11" target="wDngvXoaTJXHuX1bekDi-12">
          <mxGeometry relative="1" as="geometry" />
        </mxCell>
      </root>
    </mxGraphModel>
  </diagram>
</mxfile>
